<svg xmlns="http://www.w3.org/2000/svg" viewBox="0 0 792.05 312.76"><defs><style>.cls-1{fill:#95bf47;}.cls-2{fill:#008060;}</style></defs><title>logo-3</title><g id="Layer_2" data-name="Layer 2"><g id="Layer_1-2" data-name="Layer 1"><path class="cls-1" d="M153.85,117.56H99.42v25.9h44.76V163.6H99.42v26h54.43v21.26H75V96.22h78.89Z"/><path class="cls-1" d="M268.7,96.22l-36.77,57.31,36.77,57.31H242.32l-23.66-36.77-23.58,36.77H168.54l36.93-57.31L168.54,96.22h26.54L218.66,133l23.66-36.77Z"/><path class="cls-1" d="M341.74,96.22a33.11,33.11,0,0,1,25.06,10.91q10.27,10.91,10.27,27.54,0,16.79-10.27,27.62a33.22,33.22,0,0,1-25.06,10.83H307.85v37.73H283.39V96.22ZM337,152.89a14.67,14.67,0,0,0,11.19-4.8q4.48-4.8,4.48-12.91t-4.48-12.87A14.73,14.73,0,0,0,337,117.56H307.85v35.33Z"/><path class="cls-1" d="M473.29,117.56H418.86v25.9h44.76V163.6H418.86v26h54.43v21.26H394.4V96.22h78.89Z"/><path class="cls-1" d="M592.77,210.84H567.36l-22.06-37.73H518.84v37.73H494.38V96.22h58.35a33.11,33.11,0,0,1,25.06,10.91q10.27,10.91,10.27,27.54a40.75,40.75,0,0,1-5.48,21.26,34.33,34.33,0,0,1-14.67,13.67Zm-73.94-93.28v35.33H548a14.67,14.67,0,0,0,11.19-4.8q4.48-4.8,4.48-12.91t-4.48-12.87A14.73,14.73,0,0,0,548,117.56Z"/><path class="cls-1" d="M691.87,96.22v21.34H658v93.28H633.6V117.56H599.55V96.22Z"/><path class="cls-2" d="M361.11,246h-9.64q.65-5.68-1.28-8.87A6.68,6.68,0,0,0,344,234a10.33,10.33,0,0,0-7.19,2.68,12.52,12.52,0,0,0-3.75,7.57,9.28,9.28,0,0,0,.33,4.49,7.51,7.51,0,0,0,2.65,3.47,23.69,23.69,0,0,0,4,2.47q2,1,5.35,2.23a38.7,38.7,0,0,1,3.68,1.47q1.54.72,3,1.61a10.9,10.9,0,0,1,4.17,4.14,9,9,0,0,1,1.07,2.82,18.77,18.77,0,0,1,.33,3.42,25.11,25.11,0,0,1-.35,4.24q-1.4,9.22-7.5,14.48a21.76,21.76,0,0,1-14.71,5.26q-9.08,0-13.92-5.49t-3.21-15.6h9.73q-.93,6,1.51,9.45a8,8,0,0,0,7,3.49,10.32,10.32,0,0,0,7.33-2.82,13.49,13.49,0,0,0,3.84-7.94,9.28,9.28,0,0,0-.19-4.17,7.92,7.92,0,0,0-1.68-3.12,13.55,13.55,0,0,0-3-2.37,23.56,23.56,0,0,0-3.63-1.84q-1.77-.7-4.24-1.63l-1.07-.37q-5.91-2-8.66-6t-1.68-10.48q1.44-9.12,7.68-14.15a23,23,0,0,1,14.9-5q8.05,0,12.34,5.31T361.11,246Z"/><path class="cls-2" d="M388.38,293.68l4.84-30.87q2.33-14.53-5.35-14.53-3.91,0-7,4.61a28.24,28.24,0,0,0-4.19,11.78l-4.56,29h-8.89l11-69.56h8.85l-4.47,27.47a17,17,0,0,1,5.66-8.22,13.44,13.44,0,0,1,8.26-2.82q13.13,0,9.64,22l-4.93,31.1Z"/><path class="cls-2" d="M438,287.3q-6.19,7-14.5,7t-12.27-7q-4-7-1.86-19.83t8.19-19.83q6.19-7.08,14.48-7.08a13.1,13.1,0,0,1,12.24,7.05q4,7.05,2,19.86T438,287.3ZM424.82,286q4.52,0,7.87-4.77t4.8-13.76q1.44-8.89-.37-13.73t-6.38-4.84q-4.56,0-7.89,4.82t-4.77,13.76q-1.44,9,.37,13.78T424.82,286Z"/><path class="cls-2" d="M466.81,241.25,465,253.87a24.73,24.73,0,0,1,6.42-9.71,12.83,12.83,0,0,1,8.66-3.61q7,0,10.34,7.47t1.4,19.44q-1.86,12-7.52,19.41t-12.69,7.45a9.27,9.27,0,0,1-7.59-3.58q-2.89-3.58-3.17-9.68l-5,31.71H447l11.27-71.51ZM464.18,281q1.75,5,6.1,5t7.75-5q3.4-5,4.8-13.55t-.47-13.55q-1.82-5-6.19-5t-7.61,5q-3.33,5-4.77,13.59T464.18,281Z"/><path class="cls-2" d="M512.8,241.25l-8.29,52.42h-8.89l8.29-52.42Zm.72-10.45a5.61,5.61,0,0,1-3.75,1.47,4.07,4.07,0,0,1-3.28-1.47,4.31,4.31,0,0,1-1-3.52,5.92,5.92,0,0,1,2.1-3.51,5.69,5.69,0,0,1,3.77-1.47,4,4,0,0,1,3.26,1.47,4.23,4.23,0,0,1,.88,3.51A5.74,5.74,0,0,1,513.52,230.8Z"/><path class="cls-2" d="M539.42,225.28q5.07,0,7.64,3l-3.49,6.38a3.52,3.52,0,0,0-3.21-1.63,5,5,0,0,0-4.31,2.21q-1.56,2.21-2.35,7.15l-.65,4.05h7.82l-1.16,7.64h-7.87l-6.29,39.62h-8.8L523,254.05h-3.17l1.21-7.64h3.17l.79-5.12q1.26-7.64,5.07-11.83A12.17,12.17,0,0,1,539.42,225.28Z"/><path class="cls-2" d="M586.06,241.25,561.29,300.1q-3.45,7.22-9,10.17a13.23,13.23,0,0,1-11.48.67l3-7.36a13.67,13.67,0,0,0,2.19.28,4,4,0,0,0,2.21-.63,8.48,8.48,0,0,0,2.14-1.86,14.07,14.07,0,0,0,2-3.47,33.33,33.33,0,0,0,1.72-5.45l-5-51.21h9.59l2,42.41,15.64-42.41Z"/><path class="cls-2" d="M649.13,226.91l-1.35,8.47H634l-9.26,58.29h-9.64l9.26-58.29H610.44l1.35-8.47Z"/><path class="cls-2" d="M667.55,240.55a13.07,13.07,0,0,1,12.22,7.22q4,7.22,2,19.83a36.78,36.78,0,0,1-.79,3.63H652.89Q651.45,286,660.34,286a8.06,8.06,0,0,0,5.68-2.26,19.54,19.54,0,0,0,4.33-6.87l7.73,1.35a27.87,27.87,0,0,1-7.78,11.8,16.81,16.81,0,0,1-11.22,4.26,13,13,0,0,1-12.2-7.15q-4-7.15-2-19.72t8.22-19.72Q659.36,240.55,667.55,240.55Zm-1.3,8.29a9.32,9.32,0,0,0-7.24,3.58q-3.1,3.59-4.87,10.85h19.6q.56-7.22-1.44-10.82A6.5,6.5,0,0,0,666.25,248.84Z"/><path class="cls-2" d="M720.53,241.25h8.66l-8.33,52.42h-8.61L714,281.06a23.21,23.21,0,0,1-6.19,9.68,12.81,12.81,0,0,1-8.71,3.58q-7,0-10.31-7.45t-1.37-19.41Q689.29,255.55,695,248t12.66-7.5a9.24,9.24,0,0,1,7.57,3.63,16.3,16.3,0,0,1,3.19,9.68ZM696.88,281q1.82,5,6.17,5t7.68-5q3.33-5,4.73-13.55t-.4-13.59q-1.75-5-6.1-5t-7.78,5.05q-3.42,5.05-4.77,13.52T696.88,281Z"/><path class="cls-2" d="M782.81,240.55q12,0,8.43,22l-4.89,31.1H777.5l4.8-30q1.26-7.87.23-11.64T778,248.28q-3.68,0-6.33,4.59t-3.91,12.59v-.09l-4.47,28.31h-8.8l4.89-31q2.23-14.43-4.38-14.43-3.49,0-6.22,4.52A32.27,32.27,0,0,0,745,264.53l-4.61,29.14h-8.89l8.29-52.42h8.66l-1.44,10a17.24,17.24,0,0,1,5.21-7.82,11.67,11.67,0,0,1,7.59-2.89q8.19,0,9.13,10.62a18.06,18.06,0,0,1,5.77-7.87A13.3,13.3,0,0,1,782.81,240.55Z"/><polygon class="cls-1" points="177.62 47.73 42.72 37.62 30.35 264.69 258.55 234.34 44.97 252.33 50.59 47.73 177.62 47.73"/><polygon class="cls-1" points="50.25 38.18 35.94 37.16 0 248.96 30.35 264.69 30.73 257.75 19.67 254.02 26.98 163.52 14.05 250.64 2.81 246.15 36.79 39.03 50.25 38.18"/><path class="cls-2" d="M85.87,64.79l-4.09-.06.43-27.8a38.68,38.68,0,0,1,9.76-26,31.44,31.44,0,0,1,47.59,0,38.68,38.68,0,0,1,9.76,26V64.76h-4.09V36.94c0-18.11-13.22-32.85-29.46-32.85S86.29,18.83,86.29,36.94v0Z"/><polygon class="cls-2" points="258.55 242.21 30.35 278.19 30.35 298.42 258.55 242.21"/><circle class="cls-2" cx="83.82" cy="64.77" r="6.82"/><circle class="cls-2" cx="147.22" cy="64.77" r="6.82"/><path class="cls-1" d="M767,130.87c-.54-9.64-8.16-16.17-21.46-16.17-13,0-21.15,5.13-21.15,14.38.47,5.68,4,8.47,11.58,10.88,2.72.86,5.13,1.55,7.31,2s5.05,1,8.71,1.71c2.18.39,3.81.78,4.82,1,12.13,2.72,19.83,5.36,26.12,10s9.1,11.12,9.1,20.14c.08,11-3.81,19.75-11.82,26s-19.2,9.56-33.43,9.56c-14.93,0-26.67-3.11-35.14-9.25S698.9,186,698.9,174h23.95c.62,10.57,9.41,16.95,23.95,16.95,13-.08,20.91-6,20.91-15.24,0-4-3-7.15-6.76-9.25a46.3,46.3,0,0,0-7.31-3c-3-1-5.83-1.79-8.4-2.41s-5.68-1.24-9.25-2.1-6.53-1.55-8.63-2.1c-17.73-5.05-26-12.83-26-26.82,0-11,4-19.36,12.05-25s19.2-8.55,33.59-8.55c13.3,0,23.71,3,31.1,9S789.48,120,790,130.87Z"/></g></g></svg>